<svg width="23" height="23" viewBox="0 0 23 23" fill="none" xmlns="http://www.w3.org/2000/svg">
<g clip-path="url(#clip0_2_275)">
<path fill-rule="evenodd" clip-rule="evenodd" d="M5.75 4.32759V2.15625C5.75 0.967437 4.78256 0 3.59375 0C2.40494 0 1.4375 0.967437 1.4375 2.15625V4.32759C0.56925 4.98525 0 6.01522 0 7.1875C0 8.35978 0.56925 9.38975 1.4375 10.046V20.8438C1.4375 22.0326 2.40494 23 3.59375 23C4.78256 23 5.75 22.0326 5.75 20.8438V10.046C6.61825 9.39047 7.1875 8.35978 7.1875 7.1875C7.1875 6.01522 6.61825 4.98525 5.75 4.32759ZM2.875 2.15625C2.875 1.75878 3.19628 1.4375 3.59375 1.4375C3.99122 1.4375 4.3125 1.75878 4.3125 2.15625V3.66562C4.08034 3.61891 3.84028 3.59375 3.59375 3.59375C3.34722 3.59375 3.10716 3.61891 2.875 3.66562V2.15625ZM4.3125 20.8438C4.3125 21.2412 3.99122 21.5625 3.59375 21.5625C3.19628 21.5625 2.875 21.2412 2.875 20.8438V10.7079C3.10716 10.7561 3.34722 10.7812 3.59375 10.7812C3.84028 10.7812 4.08034 10.7561 4.3125 10.7079V20.8438ZM5.65297 7.79125C5.64147 7.82934 5.63141 7.86672 5.61775 7.90481C5.54947 8.09456 5.46178 8.27425 5.34606 8.43381C5.34319 8.43813 5.33887 8.441 5.336 8.44531C5.21094 8.61637 5.06216 8.76803 4.89325 8.89597C4.89038 8.89884 4.88822 8.90028 4.88606 8.90172C4.71284 9.03253 4.5195 9.13747 4.31178 9.21078C4.08681 9.292 3.84747 9.34375 3.59375 9.34375C3.34003 9.34375 3.10069 9.292 2.875 9.21006C2.66728 9.13675 2.47394 9.03181 2.30072 8.901C2.29856 8.89956 2.29641 8.89813 2.29353 8.89525C2.12462 8.76731 1.97584 8.61566 1.85078 8.44459C1.84791 8.44028 1.84359 8.43741 1.84072 8.43309C1.725 8.27281 1.63731 8.09312 1.56903 7.90409C1.55538 7.866 1.54531 7.82862 1.53381 7.79053C1.47703 7.59862 1.4375 7.39809 1.4375 7.1875C1.4375 6.97547 1.47703 6.77494 1.53453 6.58231C1.54603 6.54422 1.55609 6.50684 1.56975 6.47019C1.63731 6.28044 1.725 6.10075 1.84144 5.93975C1.84431 5.93544 1.84862 5.93256 1.8515 5.92825C1.97656 5.75863 2.12534 5.60553 2.29425 5.47759C2.29712 5.47616 2.29928 5.47328 2.30144 5.47184C2.47394 5.34319 2.66728 5.23753 2.875 5.1635C3.10069 5.083 3.34003 5.03125 3.59375 5.03125C3.84747 5.03125 4.08681 5.083 4.3125 5.1635C4.52022 5.23825 4.71356 5.34319 4.88678 5.47256C4.88894 5.474 4.89109 5.47688 4.89397 5.47831C5.06287 5.60625 5.21166 5.75934 5.33672 5.92897C5.33959 5.93328 5.34391 5.93616 5.34678 5.94047C5.4625 6.10075 5.55019 6.28044 5.61775 6.47019C5.63141 6.50684 5.64219 6.54422 5.65297 6.58231C5.71047 6.77494 5.75 6.97547 5.75 7.1875C5.75 7.39809 5.71047 7.59863 5.65297 7.79125Z" fill="#FF8A00"/>
<path fill-rule="evenodd" clip-rule="evenodd" d="M21.5625 4.32759V2.15625C21.5625 0.967437 20.5951 0 19.4062 0C18.2174 0 17.25 0.967437 17.25 2.15625V4.32759C16.381 4.98525 15.8125 6.01522 15.8125 7.1875C15.8125 8.35978 16.381 9.38975 17.25 10.046V20.8438C17.25 22.0326 18.2174 23 19.4062 23C20.5951 23 21.5625 22.0326 21.5625 20.8438V10.046C22.43 9.39047 23 8.35978 23 7.1875C23 6.01522 22.43 4.98525 21.5625 4.32759ZM18.6875 2.15625C18.6875 1.75878 19.0088 1.4375 19.4062 1.4375C19.8037 1.4375 20.125 1.75878 20.125 2.15625V3.66562C19.8921 3.61891 19.6521 3.59375 19.4062 3.59375C19.159 3.59375 18.9189 3.61891 18.6875 3.66562V2.15625ZM20.125 20.8438C20.125 21.2412 19.8037 21.5625 19.4062 21.5625C19.0088 21.5625 18.6875 21.2412 18.6875 20.8438V10.7079C18.9189 10.7561 19.159 10.7812 19.4062 10.7812C19.6521 10.7812 19.8921 10.7561 20.125 10.7079V20.8438ZM21.4655 7.79125C21.454 7.82934 21.4432 7.86672 21.4303 7.90481C21.3612 8.09456 21.2743 8.27425 21.1578 8.43381C21.155 8.43813 21.1507 8.441 21.1478 8.44531C21.0227 8.61637 20.8739 8.76803 20.7058 8.89597C20.7029 8.89884 20.7 8.90028 20.6986 8.90172C20.5246 9.03253 20.332 9.13747 20.1243 9.21078C19.8993 9.292 19.6593 9.34375 19.4062 9.34375C19.1518 9.34375 18.9132 9.292 18.6875 9.21006C18.4798 9.13675 18.2857 9.03181 18.1132 8.901C18.1103 8.89956 18.1089 8.89813 18.106 8.89525C17.9364 8.76731 17.7876 8.61566 17.6626 8.44459C17.6597 8.44028 17.6554 8.43741 17.6525 8.43309C17.5375 8.27281 17.4491 8.09312 17.3815 7.90409C17.3672 7.866 17.3578 7.82862 17.3463 7.79053C17.2895 7.59862 17.25 7.39809 17.25 7.1875C17.25 6.97547 17.2895 6.77494 17.347 6.58231C17.3585 6.54422 17.3679 6.50684 17.3823 6.47019C17.4498 6.28044 17.5382 6.10075 17.6532 5.93975C17.6561 5.93544 17.6604 5.93256 17.6633 5.92825C17.7883 5.75863 17.9371 5.60553 18.1067 5.47759C18.1096 5.47616 18.1111 5.47328 18.1139 5.47184C18.2864 5.34247 18.4805 5.23753 18.6882 5.16278C18.9132 5.083 19.1518 5.03125 19.4062 5.03125C19.6593 5.03125 19.8993 5.083 20.125 5.1635C20.3327 5.23825 20.5253 5.34319 20.6993 5.47256C20.7007 5.474 20.7036 5.47688 20.7065 5.47831C20.8747 5.60625 21.0234 5.75934 21.1485 5.92897C21.1514 5.93328 21.1557 5.93616 21.1586 5.94047C21.275 6.10219 21.362 6.28188 21.431 6.47091C21.4439 6.50756 21.4547 6.54566 21.4662 6.58303C21.523 6.77494 21.5625 6.97547 21.5625 7.1875C21.5625 7.39809 21.523 7.59863 21.4655 7.79125Z" fill="#FF8A00"/>
<path fill-rule="evenodd" clip-rule="evenodd" d="M13.6562 12.9526V2.15625C13.6562 0.967437 12.6888 0 11.5 0C10.3112 0 9.34375 0.967437 9.34375 2.15625V12.9526C8.4755 13.6095 7.90625 14.6402 7.90625 15.8125C7.90625 16.9848 8.4755 18.0147 9.34375 18.671V20.8438C9.34375 22.0326 10.3112 23 11.5 23C12.6888 23 13.6562 22.0326 13.6562 20.8438V18.671C14.5238 18.0155 15.0938 16.9848 15.0938 15.8125C15.0938 14.6402 14.5238 13.6102 13.6562 12.9526ZM10.7812 2.15625C10.7812 1.75878 11.1025 1.4375 11.5 1.4375C11.8975 1.4375 12.2188 1.75878 12.2188 2.15625V12.2906C11.9859 12.2446 11.7458 12.2188 11.5 12.2188C11.2535 12.2188 11.0134 12.2439 10.7812 12.2906V2.15625ZM12.2188 20.8438C12.2188 21.2412 11.8975 21.5625 11.5 21.5625C11.1025 21.5625 10.7812 21.2412 10.7812 20.8438V19.3329C11.0134 19.3811 11.2535 19.4062 11.5 19.4062C11.7458 19.4062 11.9859 19.3811 12.2188 19.3329V20.8438ZM13.5592 16.4163C13.5477 16.4543 13.5369 16.4917 13.524 16.5298C13.455 16.7196 13.368 16.8993 13.2516 17.0588C13.2487 17.0631 13.2444 17.066 13.2415 17.0703C13.1165 17.2414 12.9677 17.393 12.7995 17.521C12.7966 17.5238 12.7938 17.5253 12.7923 17.5267C12.6184 17.6575 12.4258 17.7625 12.218 17.8358C11.9931 17.917 11.753 17.9688 11.5 17.9688C11.2463 17.9688 11.0069 17.917 10.7812 17.8351C10.5735 17.7617 10.3802 17.6568 10.207 17.526C10.2048 17.5246 10.2027 17.5231 10.1998 17.5203C10.0309 17.3923 9.88209 17.2407 9.75703 17.0696C9.75416 17.0653 9.74984 17.0624 9.74697 17.0581C9.63125 16.8978 9.54356 16.7181 9.47528 16.5291C9.46162 16.491 9.45156 16.4536 9.44006 16.4155C9.38328 16.2236 9.34375 16.0231 9.34375 15.8125C9.34375 15.6005 9.38328 15.3999 9.44078 15.2073C9.45228 15.1692 9.46234 15.1318 9.476 15.0952C9.54428 14.9054 9.63197 14.7257 9.74769 14.5647C9.75056 14.5604 9.75488 14.5576 9.75775 14.5532C9.88281 14.3836 10.0316 14.2305 10.2005 14.1026C10.2034 14.1012 10.2055 14.0983 10.2077 14.0968C10.3809 13.9675 10.5743 13.8625 10.782 13.7878C11.0069 13.708 11.2463 13.6562 11.5 13.6562C11.753 13.6562 11.9931 13.708 12.2188 13.7885C12.4265 13.8632 12.6191 13.9682 12.793 14.0976C12.7945 14.099 12.7973 14.1019 12.8002 14.1033C12.9684 14.2312 13.1172 14.3843 13.2422 14.554C13.2451 14.5583 13.2494 14.5612 13.2523 14.5655C13.3687 14.7272 13.4557 14.9069 13.5247 15.0959C13.5377 15.1326 13.5484 15.1707 13.5599 15.208C13.6167 15.3999 13.6562 15.6005 13.6562 15.8125C13.6562 16.0231 13.6167 16.2236 13.5592 16.4163Z" fill="#FF8A00"/>
</g>
<defs>
<clipPath id="clip0_2_275">
<rect width="23" height="23" fill="white"/>
</clipPath>
</defs>
</svg>
