<svg width="25" height="25" viewBox="0 0 25 25" fill="none" xmlns="http://www.w3.org/2000/svg">
<g clip-path="url(#clip0_2_49)">
<path fill-rule="evenodd" clip-rule="evenodd" d="M17.3611 15.2778H16.25L15.8333 14.8611C17.2222 13.3333 18.0556 11.25 18.0556 9.02778C18.0556 4.02778 14.0278 0 9.02778 0C4.02778 0 0 4.02778 0 9.02778C0 14.0278 4.02778 18.0556 9.02778 18.0556C11.25 18.0556 13.3333 17.2222 14.8611 15.8333L15.2778 16.25V17.3611L22.2222 24.3056L24.3056 22.2222L17.3611 15.2778ZM9.02778 15.2778C5.55556 15.2778 2.77778 12.5 2.77778 9.02778C2.77778 5.55556 5.55556 2.77778 9.02778 2.77778C12.5 2.77778 15.2778 5.55556 15.2778 9.02778C15.2778 12.5 12.5 15.2778 9.02778 15.2778Z" fill="#00659F"/>
</g>
<defs>
<clipPath id="clip0_2_49">
<rect width="25" height="25" fill="white"/>
</clipPath>
</defs>
</svg>
