<svg width="40" height="40" viewBox="0 0 40 40" fill="none" xmlns="http://www.w3.org/2000/svg">
<path d="M27.6715 25.0746C25.8093 26.2572 23.2469 26.7261 21.5545 26.9029L22.975 28.303L28.1608 33.4888C30.0571 35.4327 26.9713 38.4707 25.0548 36.5949C23.7567 35.2763 21.8534 33.3732 19.8689 31.3886L14.6831 36.5881C12.7664 38.4572 9.68075 35.3917 11.5974 33.4819C12.9159 32.1633 14.7986 30.2603 16.7832 28.2962L18.1833 26.896C16.5114 26.7193 13.9083 26.2775 12.0256 25.0679C9.80985 23.6405 8.83797 22.8045 9.6943 21.0578C10.1972 20.0655 11.5769 19.2295 13.4052 20.6704C13.4052 20.6704 15.8724 22.6346 19.8553 22.6346C23.838 22.6346 26.3052 20.6704 26.3052 20.6704C28.1335 19.2362 29.5064 20.0655 30.0162 21.0578C30.8592 22.8045 29.8873 23.6405 27.6715 25.0746ZM11.0333 11.189C11.0333 6.3159 14.9957 2.37384 19.8486 2.37384C24.7015 2.37384 28.6638 6.3159 28.6638 11.189C28.6638 16.0419 24.7015 19.9839 19.8486 19.9839C14.9957 19.9839 11.0333 16.0419 11.0333 11.189ZM15.5192 11.189C15.5192 13.5746 17.463 15.5185 19.8486 15.5185C22.2341 15.5185 24.1781 13.5746 24.1781 11.189C24.1781 8.783 22.2341 6.83925 19.8486 6.83925C17.4629 6.83925 15.5192 8.783 15.5192 11.189Z" fill="white"/>
</svg>
