<svg width="47" height="48" viewBox="0 0 47 48" fill="none" xmlns="http://www.w3.org/2000/svg">
<g clip-path="url(#clip0_2_267)">
<path d="M23.5729 0.802063C10.6345 0.802063 0.145836 11.2907 0.145836 24.2291C0.145836 37.1676 10.6345 47.6562 23.5729 47.6562C36.5113 47.6562 47 37.1676 47 24.2291C47 11.2907 36.5113 0.802063 23.5729 0.802063ZM35.7494 15.6212L31.5886 35.4851C31.5382 35.7254 31.4283 35.9491 31.2689 36.1358C31.1095 36.3225 30.9058 36.4662 30.6764 36.5536C30.447 36.641 30.1993 36.6693 29.9561 36.636C29.7129 36.6027 29.482 36.5088 29.2846 36.363L23.2323 31.8916L19.5656 35.3508C19.5176 35.3961 19.4611 35.4313 19.3993 35.4545C19.3375 35.4777 19.2718 35.4884 19.2058 35.4859C19.1399 35.4834 19.0751 35.4678 19.0153 35.4399C18.9554 35.4121 18.9017 35.3727 18.8573 35.3239L18.7785 35.2373L19.4156 29.0717L30.8989 18.5797C30.9557 18.5279 30.991 18.4567 30.9979 18.3802C31.0048 18.3036 30.9827 18.2273 30.936 18.1662C30.8894 18.1051 30.8215 18.0637 30.7459 18.0502C30.6702 18.0367 30.5922 18.052 30.5273 18.0932L15.8415 27.3881L9.51667 25.2639C9.34849 25.2074 9.20192 25.1002 9.09706 24.9571C8.99219 24.814 8.93418 24.642 8.93097 24.4646C8.92776 24.2872 8.97952 24.1132 9.07914 23.9664C9.17876 23.8196 9.32136 23.7072 9.48739 23.6447L34.2341 14.3224C34.425 14.2506 34.6317 14.2313 34.8325 14.2667C35.0334 14.3021 35.2211 14.3908 35.3759 14.5235C35.5308 14.6562 35.6472 14.8281 35.7129 15.0212C35.7786 15.2143 35.7912 15.4215 35.7494 15.6212Z" fill="white"/>
</g>
<defs>
<clipPath id="clip0_2_267">
<rect width="46.8542" height="46.8542" fill="white" transform="translate(0.145836 0.802063)"/>
</clipPath>
</defs>
</svg>
