<svg width="50" height="50" viewBox="0 0 50 50" fill="none" xmlns="http://www.w3.org/2000/svg">
<path fill-rule="evenodd" clip-rule="evenodd" d="M46.9149 12.7765C47.2595 11.6847 46.9149 10.891 45.3904 10.891H40.3214C39.0428 10.891 38.4524 11.5859 38.1078 12.3293C38.1078 12.3293 35.5003 18.6788 31.859 22.7954C30.6781 23.9859 30.137 24.3827 29.4972 24.3827C29.1527 24.3827 28.7094 23.9859 28.7094 22.8951V12.7252C28.7094 11.4359 28.3164 10.8406 27.2333 10.8406H19.2615C18.4736 10.8406 17.9819 11.4359 17.9819 12.0312C17.9819 13.2711 19.8026 13.5692 19.9991 17.0411V24.585C19.9991 26.2218 19.7087 26.5209 19.0641 26.5209C17.3422 26.5209 13.1598 20.122 10.6509 12.8307C10.1631 11.3865 9.66755 10.8406 8.38796 10.8406H3.27059C1.79452 10.8406 1.54867 11.5346 1.54867 12.279C1.54867 13.6186 3.27059 20.364 9.56882 29.292C13.7512 35.3899 19.7048 38.6672 25.0681 38.6672C28.3164 38.6672 28.7094 37.9229 28.7094 36.683V32.0699C28.7094 30.5822 29.0046 30.3345 30.0383 30.3345C30.7759 30.3345 32.1048 30.7303 35.1063 33.6573C38.5502 37.1292 39.1406 38.7166 41.06 38.7166H46.128C47.604 38.7166 48.2932 37.9723 47.8993 36.534C47.4569 35.0956 45.7834 33.0127 43.6182 30.5329C42.4373 29.1449 40.666 27.6069 40.125 26.8625C39.3874 25.8704 39.5839 25.4736 40.125 24.5812C40.0756 24.5812 46.2761 15.7518 46.9149 12.7726" fill="white"/>
</svg>
